<?xml version="1.0" encoding="UTF-8"?>
<!DOCTYPE svg PUBLIC "-//W3C//DTD SVG 1.1//EN" "http://www.w3.org/Graphics/SVG/1.1/DTD/svg11.dtd">
<!-- Creator: CorelDRAW 2020 (64-Bit) -->
<svg xmlns="http://www.w3.org/2000/svg" xml:space="preserve" width="0.86055cm" height="0.77386cm" version="1.1" style="shape-rendering:geometricPrecision; text-rendering:geometricPrecision; image-rendering:optimizeQuality; fill-rule:evenodd; clip-rule:evenodd"
viewBox="0 0 3495.9 3143.8"
 xmlns:xlink="http://www.w3.org/1999/xlink"
 xmlns:xodm="http://www.corel.com/coreldraw/odm/2003">
 <defs>
  <style type="text/css">
   <![CDATA[
    .str0 {stroke:#4574B8;stroke-width:77.6;stroke-linecap:round;stroke-linejoin:round;stroke-miterlimit:10}
    .fil0 {fill:#4574B8;fill-rule:nonzero}
   ]]>
  </style>
 </defs>
 <g id="Layer_x0020_1">
  <metadata id="CorelCorpID_0Corel-Layer"/>
  <g id="_1827902964768">
   <path class="fil0 str0" d="M45.7 38.8c145.1,14.1 286.1,55 424.2,100.5 139.1,45.4 275.2,102.6 407.6,165.1 261.9,123.7 509.4,276.9 737.5,455 230.9,179.6 442.4,382.6 630.1,605.9 187.4,223.7 351.6,467.1 486.3,725.7 135.1,258.6 241.3,532.5 313.6,815.4l25.3 106.5 -108.7 -3.3c111.5,-284.5 223,-569 334,-854.1l45.6 -117.2 6.3 -19 1.4 -3.8 -0 -1.9 13.8 21.1 33.7 2.2 3.9 -2.2 1 -1.6 7.2 -27.7 -10.9 -21.2 3.2 4.2 -20.3 -12.7 3.8 0.9 29.5 55.8 -55.5 30.1 -6.5 -1.6 -13.1 -6.3 -21.7 -30.7 7.1 -49.9 98.9 -28.5 34.1 118.8 -51 129.7c-72,180.5 -143.8,361.7 -215.7,542.5 -40.2,101.7 -80.4,203.4 -121.2,305.4l-55.3 40.1 -52.7 -43.6c-60.5,-278 -152.4,-547 -275.3,-803.8 -122.6,-256.6 -273.4,-498.7 -448.8,-722.7 -176.1,-225.3 -376.9,-432.7 -597,-616.1 -217.7,-181.3 -454.8,-339.1 -706.2,-470.2 -125.7,-64.9 -254.8,-122.6 -387.3,-173.2 -133.7,-51.6 -270,-92.5 -406.7,-135.8l-101.2 -33.1 6.9 -44.7z"/>
   <path class="fil0 str0" d="M2312.8 2407.2c161.4,97 315.8,205.6 471.3,311.9 78.4,52.6 155.9,106.2 233.4,159.8l113.2 77.3 59.9 41.6 51.8 57.9 -30.9 49.2 -72.3 -25.2 -59.3 -42.5 -111.6 -79.9c-76.9,-54.5 -153.7,-109.2 -230.6,-164.2 -153.1,-110.7 -308.4,-218.4 -455.5,-337.1l30.6 -48.8z"/>
  </g>
 </g>
</svg>
