<?xml version="1.0" encoding="UTF-8"?>
<!DOCTYPE svg PUBLIC "-//W3C//DTD SVG 1.1//EN" "http://www.w3.org/Graphics/SVG/1.1/DTD/svg11.dtd">
<!-- Creator: CorelDRAW 2020 (64-Bit) -->
<svg xmlns="http://www.w3.org/2000/svg" xml:space="preserve" width="0.9773cm" height="0.40089cm" version="1.1" style="shape-rendering:geometricPrecision; text-rendering:geometricPrecision; image-rendering:optimizeQuality; fill-rule:evenodd; clip-rule:evenodd"
viewBox="0 0 28794.6 11811.6"
 xmlns:xlink="http://www.w3.org/1999/xlink"
 xmlns:xodm="http://www.corel.com/coreldraw/odm/2003">
 <defs>
  <style type="text/css">
   <![CDATA[
    .str0 {stroke:#4574B8;stroke-width:528;stroke-linecap:round;stroke-linejoin:round;stroke-miterlimit:10}
    .fil0 {fill:#4574B8;fill-rule:nonzero}
   ]]>
  </style>
 </defs>
 <g id="Layer_x0020_1">
  <metadata id="CorelCorpID_0Corel-Layer"/>
  <g id="_1789027672208">
   <path class="fil0 str0" d="M28530.6 943.1c-940.2,-317.6 -1929.6,-457 -2914.2,-560.7 -990.3,-106.4 -1994.7,-131.7 -2991.1,-112.6 -1971.1,36.8 -3935.1,296.4 -5848.2,766 -1934.9,470.5 -3814.9,1139.6 -5603,2001.7 -1787.5,865.9 -3486.4,1918.1 -5044.7,3147.9 -1560.4,1228 -2984.3,2632.3 -4223,4186.2l-454.9 590.7 684.4 282.6c101.9,-2077.2 204.2,-4154.6 311.4,-6234.4l43.9 -855 13.6 -135.8 1.8 -27.1 5.6 -11.8 -144.4 92.5 -215.4 -80.4 -17.7 -24.7 -1.8 -12.4 32.7 -192.4 127 -100.8 -31.8 17.1 161.2 -22.4 -25.9 -5.3 -339.1 263.7 260.5 341.5 44.5 8.2 99 -2.9 220.4 -129.9 95.2 -329.1 -534.2 -453.4 -543.3 642.6 -45.7 947.5c-56.9,1321.1 -117,2646.7 -175.6,3969.9 -34.2,743.7 -68.4,1487.3 -100.2,2234.2l231.3 403.4 448.7 -123.7c1151.7,-1556.3 2473.4,-2969.6 3952.8,-4220.9 1477.9,-1251 3089.2,-2332.6 4803.4,-3233.6 1722.4,-907.2 3547.4,-1633.7 5426,-2157.9 1857.7,-518 3770.1,-835.6 5696.7,-947.5 961.1,-51.9 1924.3,-50.1 2887.7,6.2 974.1,52.7 1934.6,179.7 2904.2,292.6l720.7 77.2 81.6 -296.7z"/>
   <path class="fil0 str0" d="M7844.6 9316.9c-1272.5,151.1 -2534.1,394.8 -3796.4,620.5 -633.8,107.8 -1264.3,224.2 -1895.1,340.6l-918.4 163.5 -487.9 91 -483.2 215.1 54.2 391.9 519.4 45.4 486.7 -98.1 915.7 -185c629.6,-123.5 1259,-248.7 1890.1,-376 1259.3,-259.6 2523.8,-494.4 3768.7,-820.6l-53.9 -388.3z"/>
  </g>
 </g>
</svg>
